<svg width="24" height="24" viewBox="0 0 24 24" fill="none" xmlns="http://www.w3.org/2000/svg">
<path d="M9.08433 10.8802C8.8167 11.5379 9.30056 12.2571 10.0106 12.2571H13.5815C14.2912 12.2571 14.775 11.5385 14.508 10.8809L13.1672 7.57856C13.014 7.20145 12.6476 6.95476 12.2406 6.95476H11.3544C10.9477 6.95476 10.5815 7.20111 10.4282 7.57784L9.08433 10.8802ZM5.96 6.95476C5.40772 6.95476 4.96 6.50705 4.96 5.95476V5C4.96 4.44771 5.40772 4 5.96 4H18.04C18.5923 4 19.04 4.44772 19.04 5V5.95476C19.04 6.50705 18.5923 6.95476 18.04 6.95476H17.0634C16.3534 6.95476 15.8695 7.6741 16.1372 8.33175L17.4814 11.6341C17.6347 12.0108 18.0009 12.2571 18.4076 12.2571H22C22.5523 12.2571 23 12.7049 23 13.2571V14.2119C23 14.7642 22.5523 15.2119 22 15.2119H20.7699H20.0659C19.3455 15.2119 18.8615 15.9507 19.1491 16.6112L20.4511 19.6007C20.7387 20.2612 20.2547 21 19.5343 21H19.2698C18.8718 21 18.5118 20.7641 18.3529 20.3992L16.3558 15.8127C16.1969 15.4478 15.8369 15.2119 15.4389 15.2119H8.60053C8.20199 15.2119 7.84151 15.4485 7.68301 15.8142L5.69627 20.3977C5.53777 20.7634 5.17729 21 4.77875 21H4.51162C3.79207 21 3.30803 20.2629 3.59398 19.6026L4.8903 16.6093C5.17625 15.949 4.6922 15.2119 3.97266 15.2119H2C1.44771 15.2119 1 14.7642 1 14.2119V13.2571C1 12.7049 1.44772 12.2571 2 12.2571H5.62564C6.03244 12.2571 6.3987 12.0107 6.55196 11.6339L7.89501 8.33149C8.16246 7.67387 7.67862 6.95476 6.96869 6.95476H5.96Z" fill="#4D5254"/>
</svg>
