<svg width="77" height="77" viewBox="0 0 77 77" fill="none" xmlns="http://www.w3.org/2000/svg">
<path d="M60.9294 6.4165H28.907C25.3425 6.4165 22.4583 9.3008 22.4583 12.8653V30.9506L7.37267 45.8437C6.92067 46.2908 6.61166 46.862 6.48487 47.485C6.35808 48.1079 6.41922 48.7545 6.66053 49.3427C6.90184 49.9308 7.31244 50.434 7.84023 50.7884C8.36802 51.1428 8.98919 51.3324 9.62492 51.3332V67.3748C9.62492 68.2257 9.96294 69.0418 10.5646 69.6435C11.1663 70.2452 11.9824 70.5832 12.8333 70.5832H64.1666C65.0175 70.5832 65.8335 70.2452 66.4352 69.6435C67.0369 69.0418 67.3749 68.2257 67.3749 67.3748V12.862C67.3749 9.3008 64.4938 6.4165 60.9294 6.4165ZM35.0413 48.481V64.1665H16.0416V46.3025L25.6249 36.8411L35.0413 46.4758V48.481ZM41.7083 28.8748H35.2916V22.4582H41.7083V28.8748ZM54.5416 54.5415H48.1249V48.1248H54.5416V54.5415ZM54.5416 41.7082H48.1249V35.2915H54.5416V41.7082ZM54.5416 28.8748H48.1249V22.4582H54.5416V28.8748Z" fill="white"/>
<path d="M22.4585 48.125H28.8752V54.5417H22.4585V48.125Z" fill="white"/>
</svg>
