<svg width="24" height="24" viewBox="0 0 24 24" fill="none" xmlns="http://www.w3.org/2000/svg">
<path d="M18.625 2H4.375C3.74511 2 3.14102 2.21071 2.69562 2.58579C2.25022 2.96086 2 3.46957 2 4V20C2 20.5304 2.25022 21.0391 2.69562 21.4142C3.14102 21.7893 3.74511 22 4.375 22H18.625C19.2549 22 19.859 21.7893 20.3044 21.4142C20.7498 21.0391 21 20.5304 21 20V4C21 3.46957 20.7498 2.96086 20.3044 2.58579C19.859 2.21071 19.2549 2 18.625 2ZM9.125 4C9.43994 4 9.74199 4.10536 9.96469 4.29289C10.1874 4.48043 10.3125 4.73478 10.3125 5C10.3125 5.26522 10.1874 5.51957 9.96469 5.70711C9.74199 5.89464 9.43994 6 9.125 6C8.81006 6 8.50801 5.89464 8.28531 5.70711C8.06261 5.51957 7.9375 5.26522 7.9375 5C7.9375 4.73478 8.06261 4.48043 8.28531 4.29289C8.50801 4.10536 8.81006 4 9.125 4ZM5.5625 4C5.87744 4 6.17949 4.10536 6.40219 4.29289C6.62489 4.48043 6.75 4.73478 6.75 5C6.75 5.26522 6.62489 5.51957 6.40219 5.70711C6.17949 5.89464 5.87744 6 5.5625 6C5.24756 6 4.94551 5.89464 4.72281 5.70711C4.50011 5.51957 4.375 5.26522 4.375 5C4.375 4.73478 4.50011 4.48043 4.72281 4.29289C4.94551 4.10536 5.24756 4 5.5625 4ZM18.625 20H4.375V8H18.625V20ZM14.6706 15.33C14.6944 16.03 14.3619 16.71 13.7681 17.21C13.4704 17.461 13.1168 17.66 12.7276 17.7959C12.3384 17.9317 11.9213 18.0016 11.5 18.0016C11.0787 18.0016 10.6616 17.9317 10.2724 17.7959C9.88321 17.66 9.52964 17.461 9.23188 17.21C8.63813 16.71 8.30562 16.03 8.32937 15.33C8.4125 14.62 8.68563 13.94 9.125 13.33C9.56437 12.5 10.0869 11.73 10.7044 11L11.5 10C13.6256 12.59 14.6706 14.36 14.6706 15.33Z" fill="#4D5254"/>
</svg>
