<svg width="24" height="24" viewBox="0 0 24 24" fill="none" xmlns="http://www.w3.org/2000/svg">
<path d="M5.25 2H18.75C19.3467 2 19.919 2.21071 20.341 2.58579C20.7629 2.96086 21 3.46957 21 4V20C21 20.5304 20.7629 21.0391 20.341 21.4142C19.919 21.7893 19.3467 22 18.75 22H5.25C4.65326 22 4.08097 21.7893 3.65901 21.4142C3.23705 21.0391 3 20.5304 3 20V4C3 3.46957 3.23705 2.96086 3.65901 2.58579C4.08097 2.21071 4.65326 2 5.25 2ZM6.375 4C6.07663 4 5.79048 4.10536 5.5795 4.29289C5.36853 4.48043 5.25 4.73478 5.25 5C5.25 5.26522 5.36853 5.51957 5.5795 5.70711C5.79048 5.89464 6.07663 6 6.375 6C6.67337 6 6.95952 5.89464 7.1705 5.70711C7.38147 5.51957 7.5 5.26522 7.5 5C7.5 4.73478 7.38147 4.48043 7.1705 4.29289C6.95952 4.10536 6.67337 4 6.375 4ZM9.75 4C9.45163 4 9.16548 4.10536 8.9545 4.29289C8.74353 4.48043 8.625 4.73478 8.625 5C8.625 5.26522 8.74353 5.51957 8.9545 5.70711C9.16548 5.89464 9.45163 6 9.75 6C10.0484 6 10.3345 5.89464 10.5455 5.70711C10.7565 5.51957 10.875 5.26522 10.875 5C10.875 4.73478 10.7565 4.48043 10.5455 4.29289C10.3345 4.10536 10.0484 4 9.75 4ZM12 8C10.2098 8 8.4929 8.63214 7.22703 9.75736C5.96116 10.8826 5.25 12.4087 5.25 14C5.25 15.5913 5.96116 17.1174 7.22703 18.2426C8.4929 19.3679 10.2098 20 12 20C13.7902 20 15.5071 19.3679 16.773 18.2426C18.0388 17.1174 18.75 15.5913 18.75 14C18.75 12.4087 18.0388 10.8826 16.773 9.75736C15.5071 8.63214 13.7902 8 12 8ZM7.62375 10.5H9.75C9.48 11.88 9.75 12.67 10.4025 13.29C11.64 14.36 12.18 15.71 11.8763 17.5H9.75C10.02 16.12 9.75 15.33 9.0975 14.71C7.86 13.64 7.33125 12.29 7.62375 10.5ZM12.1237 10.5H14.25C13.98 11.88 14.25 12.67 14.9025 13.29C16.14 14.36 16.68 15.71 16.3763 17.5H14.25C14.52 16.12 14.25 15.33 13.5975 14.71C12.36 13.64 11.8312 12.29 12.1237 10.5Z" fill="#4D5254"/>
</svg>
