<svg width="24" height="24" viewBox="0 0 24 24" fill="none" xmlns="http://www.w3.org/2000/svg">
<path d="M19 3H5C3.9 3 3 3.9 3 5V19C3 20.1 3.9 21 5 21H19C20.1 21 21 20.1 21 19V5C21 3.9 20.1 3 19 3ZM8.5 6C8.83152 6 9.14946 6.1317 9.38388 6.36612C9.6183 6.60054 9.75 6.91848 9.75 7.25C9.75 7.58152 9.6183 7.89946 9.38388 8.13388C9.14946 8.3683 8.83152 8.5 8.5 8.5C8.16848 8.5 7.85054 8.3683 7.61612 8.13388C7.3817 7.89946 7.25 7.58152 7.25 7.25C7.25 6.91848 7.3817 6.60054 7.61612 6.36612C7.85054 6.1317 8.16848 6 8.5 6ZM11 14H10V18H7V14H6V11.5C6 10.4 6.9 9.5 8 9.5H9C10.1 9.5 11 10.4 11 11.5V14ZM15.5 17L13 13H18L15.5 17ZM13 11L15.5 7L18 11H13Z" fill="#4D5254"/>
</svg>
