<svg width="260" height="204" viewBox="0 0 260 204" fill="none" xmlns="http://www.w3.org/2000/svg">
<path d="M250.25 0.25H9.75C4.63359 0.25 0.5 4.38359 0.5 9.5V194.5C0.5 199.616 4.63359 203.75 9.75 203.75H250.25C255.366 203.75 259.5 199.616 259.5 194.5V9.5C259.5 4.38359 255.366 0.25 250.25 0.25ZM79.7031 41.875C89.907 41.875 98.2031 50.1711 98.2031 60.375C98.2031 70.5789 89.907 78.875 79.7031 78.875C69.4992 78.875 61.2031 70.5789 61.2031 60.375C61.2031 50.1711 69.4992 41.875 79.7031 41.875ZM228.252 168.224C227.831 168.578 227.299 168.772 226.749 168.773H33.2219C31.95 168.773 30.9094 167.733 30.9094 166.461C30.9094 165.912 31.1117 165.391 31.4586 164.958L80.6859 106.567C81.4953 105.584 82.9695 105.469 83.9523 106.278C84.0391 106.365 84.1547 106.452 84.2414 106.567L112.974 140.677L158.675 86.4773C159.484 85.4945 160.959 85.3789 161.941 86.1883C162.028 86.275 162.144 86.3617 162.23 86.4773L228.599 164.987C229.351 165.941 229.235 167.415 228.252 168.224Z" fill="#1784E9"/>
</svg>
