<svg width="20" height="17" viewBox="0 0 20 17" fill="none" xmlns="http://www.w3.org/2000/svg">
<path d="M18.4282 4.20449C18.9359 4.817 19.4146 5.5144 19.8328 6.24213C19.9033 6.36508 19.953 6.50352 19.979 6.64956C20.005 6.7956 20.0069 6.94638 19.9845 7.09329C19.9621 7.2402 19.9159 7.38036 19.8484 7.50576C19.781 7.63117 19.6938 7.73937 19.5916 7.82419C19.4895 7.909 19.3744 7.96877 19.2531 8.00008C19.1317 8.03139 19.0064 8.03363 18.8844 8.00667C18.7623 7.97971 18.6459 7.92408 18.5417 7.84296C18.4375 7.76183 18.3476 7.6568 18.2771 7.53385C17.4444 6.06885 16.3536 4.84271 15.0825 3.94263C13.8113 3.04256 12.3909 2.49067 10.9224 2.32624C9.45393 2.16181 7.97336 2.38887 6.58604 2.99126C5.19873 3.59366 3.93876 4.55659 2.89577 5.81156C2.49265 6.29975 2.08954 6.89102 1.7217 7.5293C1.65098 7.65205 1.56086 7.75683 1.45649 7.83765C1.35213 7.91848 1.23555 7.97378 1.11343 8.00039C0.991304 8.02699 0.866022 8.02439 0.744734 7.99273C0.623445 7.96107 0.508527 7.90096 0.406539 7.81585C0.200565 7.64395 0.0597665 7.38062 0.0151161 7.08379C-0.00699253 6.93681 -0.0048305 6.78603 0.0214786 6.64006C0.0477876 6.49409 0.0977283 6.35578 0.16845 6.23304C0.596758 5.49015 1.07042 4.79274 1.56045 4.20449C2.66799 2.87151 3.98285 1.81412 5.42994 1.09271C6.87703 0.371305 8.42802 0 9.99435 0C11.5607 0 13.1117 0.371305 14.5588 1.09271C16.0059 1.81412 17.3207 2.87151 18.4282 4.20449ZM15.7324 7.06689C16.3283 7.78401 16.841 8.65122 17.234 9.57301C17.2941 9.70629 17.3314 9.85268 17.3437 10.0036C17.356 10.1544 17.3432 10.3068 17.3059 10.4516C17.2686 10.5964 17.2076 10.7308 17.1265 10.8468C17.0455 10.9628 16.9459 11.0582 16.8338 11.1272C16.7216 11.1963 16.5991 11.2377 16.4735 11.2489C16.3479 11.2601 16.2216 11.241 16.1022 11.1927C15.9828 11.1444 15.8727 11.0678 15.7782 10.9675C15.6838 10.8671 15.607 10.7451 15.5523 10.6085C15.2516 9.89646 14.8616 9.24446 14.3958 8.67548C13.7003 7.83831 12.8498 7.2114 11.914 6.84611C10.9783 6.48082 9.98397 6.38754 9.01251 6.57392C8.04106 6.7603 7.12011 7.22103 6.32514 7.91837C5.53016 8.61571 4.88377 9.5298 4.43894 10.5858C4.32217 10.847 4.12521 11.0429 3.89008 11.1318C3.65496 11.2207 3.40027 11.1955 3.18037 11.0616C2.96046 10.9277 2.79273 10.6957 2.71297 10.415C2.63321 10.1344 2.64772 9.82732 2.75342 9.55937C3.33303 8.18265 4.17543 6.99082 5.21161 6.08154C6.24778 5.17225 7.44824 4.5714 8.71459 4.32821C9.98094 4.08502 11.2772 4.20642 12.497 4.68246C13.7168 5.1585 14.8256 5.97563 15.7324 7.06689V7.06689ZM13.6728 10.6904C14.13 11.2407 14.5067 11.9154 14.7687 12.634C14.8693 12.9105 14.8745 13.2237 14.7832 13.5047C14.6919 13.7858 14.5115 14.0117 14.2818 14.1327C14.0521 14.2537 13.7919 14.26 13.5584 14.1501C13.3249 14.0402 13.1372 13.8232 13.0366 13.5467C12.8686 13.0822 12.6312 12.6588 12.3362 12.2974C12.0285 11.927 11.6632 11.6332 11.2612 11.4328C10.8592 11.2323 10.4283 11.1291 9.99309 11.1291C9.55792 11.1291 9.12701 11.2323 8.72497 11.4328C8.32294 11.6332 7.95765 11.927 7.64999 12.2974C7.35848 12.6536 7.12478 13.0722 6.96092 13.5316C6.91289 13.6713 6.84218 13.7982 6.75291 13.9047C6.66365 14.0111 6.55763 14.0951 6.44106 14.1517C6.32449 14.2082 6.19972 14.2362 6.07405 14.234C5.94838 14.2318 5.82434 14.1995 5.70919 14.1388C5.59404 14.0782 5.4901 13.9906 5.40345 13.881C5.3168 13.7714 5.24918 13.6422 5.20456 13.5007C5.15994 13.3593 5.13921 13.2086 5.14359 13.0575C5.14797 12.9063 5.17736 12.7577 5.23005 12.6204C5.48886 11.9015 5.85619 11.2466 6.31342 10.6889C6.79656 10.1071 7.3702 9.64566 8.00157 9.33082C8.63294 9.01598 9.30967 8.85393 9.99309 8.85393C10.6765 8.85393 11.3532 9.01598 11.9846 9.33082C12.616 9.64566 13.1896 10.1071 13.6728 10.6889V10.6904ZM11.1105 13.7832C11.4041 14.1365 11.5692 14.6156 11.5693 15.1153C11.5694 15.615 11.4046 16.0943 11.1111 16.4478C10.8176 16.8012 10.4194 16.9999 10.0042 17C9.58904 17.0001 9.1908 16.8018 8.89712 16.4485C8.60362 16.0953 8.43873 15.6162 8.43873 15.1166C8.43873 14.6171 8.60362 14.138 8.89712 13.7847C9.19063 13.4315 9.58871 13.2331 10.0038 13.2331C10.4189 13.2331 10.817 13.4315 11.1105 13.7847V13.7832Z" fill="#4D5254"/>
</svg>
