<svg width="24" height="24" viewBox="0 0 24 24" fill="none" xmlns="http://www.w3.org/2000/svg">
<path d="M12 22C6.477 22 2 17.523 2 12C2 6.477 6.477 2 12 2C17.523 2 22 6.477 22 12C22 17.523 17.523 22 12 22ZM11 10.792L10 17H14L13 10.792C13.5264 10.5623 13.9576 10.1583 14.2212 9.64797C14.4848 9.13767 14.5646 8.55217 14.4473 7.98994C14.3299 7.4277 14.0226 6.92302 13.5769 6.56075C13.1312 6.19847 12.5744 6.00071 12 6.00071C11.4256 6.00071 10.8688 6.19847 10.4231 6.56075C9.97744 6.92302 9.67008 7.4277 9.55273 7.98994C9.43539 8.55217 9.51521 9.13767 9.77878 9.64797C10.0424 10.1583 10.4736 10.5623 11 10.792Z" fill="#4D5254"/>
</svg>
