<svg width="24" height="24" viewBox="0 0 24 24" fill="none" xmlns="http://www.w3.org/2000/svg">
<path d="M19 3H5C4.44772 3 4 3.40294 4 3.9V20.1C4 20.5971 4.44772 21 5 21H19C19.5523 21 20 20.5971 20 20.1V3.9C20 3.40294 19.5523 3 19 3Z" stroke="#4D5254" stroke-width="2"/>
<path d="M4 6.6C4 6.83869 4.10536 7.06761 4.29289 7.2364C4.48043 7.40518 4.73478 7.5 5 7.5H19C19.2652 7.5 19.5196 7.40518 19.7071 7.2364C19.8946 7.06761 20 6.83869 20 6.6V3.9C20 3.66131 19.8946 3.43239 19.7071 3.2636C19.5196 3.09482 19.2652 3 19 3H5C4.73478 3 4.48043 3.09482 4.29289 3.2636C4.10536 3.43239 4 3.66131 4 3.9V6.6Z" stroke="#4D5254" stroke-width="2"/>
<path d="M7 6.1501C7.55228 6.1501 8 5.74715 8 5.2501C8 4.75304 7.55228 4.3501 7 4.3501C6.44772 4.3501 6 4.75304 6 5.2501C6 5.74715 6.44772 6.1501 7 6.1501Z" fill="#4D5254"/>
<path d="M10 6.1501C10.5523 6.1501 11 5.74715 11 5.2501C11 4.75304 10.5523 4.3501 10 4.3501C9.44772 4.3501 9 4.75304 9 5.2501C9 5.74715 9.44772 6.1501 10 6.1501Z" fill="#4D5254"/>
<path d="M12 17.4001C13.933 17.4001 15.5 15.9898 15.5 14.2501C15.5 12.5104 13.933 11.1001 12 11.1001C10.067 11.1001 8.5 12.5104 8.5 14.2501C8.5 15.9898 10.067 17.4001 12 17.4001Z" stroke="#4D5254" stroke-width="2"/>
</svg>
