<svg width="24" height="24" viewBox="0 0 24 24" fill="none" xmlns="http://www.w3.org/2000/svg">
<path d="M10.0187 2C8.9644 2.00785 8.12909 2.84758 8.08412 3.9849C8.09178 5.0916 8.91011 5.94937 10.0187 5.99167C11.0059 5.9778 11.8828 5.13375 11.9327 3.9849C11.9253 2.8827 11.1117 2.05025 10.0187 2ZM10.5536 6.43958C10.1145 6.43958 9.74405 6.5925 9.44216 6.89843C9.19689 7.15372 8.92229 7.71678 9.01024 8.16875H8.98965L10.1217 13.825C10.2384 14.4729 10.7526 14.8906 11.439 14.9349C13.0159 14.9304 14.7258 14.8933 16.3373 14.9136L19.0544 19.8229C19.3601 20.4921 20.143 20.633 20.7113 20.1432C20.9839 19.8627 21.0942 19.3853 20.9066 18.9693L17.7576 13.2912C17.5308 12.8044 17.0831 12.5301 16.5226 12.5016H13.0236L12.6122 10.4099H15.3494C15.9411 10.4553 16.3674 9.98698 16.2449 9.34272C16.1549 9.02792 15.8403 8.73808 15.473 8.72347H12.2622C12.1004 7.86575 12.1261 7.34725 11.4903 6.75992C11.2227 6.54645 10.9104 6.43958 10.5536 6.43958ZM7.60096 8.86042C7.51396 8.86172 7.42738 8.87307 7.34281 8.89427C6.13031 9.38352 5.03949 10.2243 4.19379 11.3917C3.44857 12.4815 3.03193 13.7933 3 15.2339C3.01241 16.9412 3.71938 18.6933 4.98634 20.0151C6.21433 21.228 7.91882 21.9601 9.75104 22C11.0874 21.9924 12.4233 21.5831 13.6413 20.7729C14.7353 20.0023 15.5927 18.8965 16.1108 17.5177C16.2069 17.2758 16.2893 17.0051 16.3579 16.7063C16.4584 16.2365 16.2041 15.8549 15.7201 15.7031C15.2798 15.602 14.8861 15.8539 14.7322 16.3438C14.6913 16.5561 14.6292 16.7635 14.5469 16.9625C14.1973 17.921 13.5467 18.7506 12.6841 19.3958C11.8454 19.9873 10.8409 20.3094 9.75104 20.3349C8.45489 20.3254 7.20641 19.813 6.15956 18.8412C5.26005 17.9368 4.69734 16.6426 4.66742 15.2339C4.67317 14.2296 4.98502 13.2386 5.57295 12.3417C6.14951 11.5116 6.95664 10.8705 7.93997 10.4526C8.35434 10.3117 8.57758 9.86677 8.43367 9.38542C8.29467 9.0394 7.96721 8.85528 7.60096 8.86042Z" fill="#4D5254"/>
</svg>
