<svg width="62" height="65" viewBox="0 0 62 65" fill="none" xmlns="http://www.w3.org/2000/svg">
<path d="M54.9299 0.416656H22.9075C19.343 0.416656 16.4587 3.30095 16.4587 6.86541V24.9508L1.37316 39.8439C0.921156 40.2909 0.612149 40.8622 0.485357 41.4851C0.358565 42.1081 0.419704 42.7547 0.661015 43.3428C0.902326 43.931 1.31293 44.4342 1.84072 44.7886C2.3685 45.143 2.98968 45.3326 3.62541 45.3333V61.375C3.62541 62.2259 3.96343 63.042 4.56511 63.6436C5.16679 64.2453 5.98284 64.5833 6.83374 64.5833H58.1671C59.018 64.5833 59.834 64.2453 60.4357 63.6436C61.0374 63.042 61.3754 62.2259 61.3754 61.375V6.8622C61.3754 3.30095 58.4943 0.416656 54.9299 0.416656ZM29.0418 42.4811V58.1667H10.0421V40.3027L19.6254 30.8413L29.0418 40.4759V42.4811ZM35.7087 22.875H29.2921V16.4583H35.7087V22.875ZM48.5421 48.5417H42.1254V42.125H48.5421V48.5417ZM48.5421 35.7083H42.1254V29.2917H48.5421V35.7083ZM48.5421 22.875H42.1254V16.4583H48.5421V22.875Z" fill="white"/>
</svg>
