<svg width="53" height="43" viewBox="0 0 53 43" fill="none" xmlns="http://www.w3.org/2000/svg">
<path fill-rule="evenodd" clip-rule="evenodd" d="M47.218 24.7176V21.316C47.218 9.82913 37.8552 0.483887 26.3467 0.483887C14.8382 0.483887 5.47549 9.82913 5.47549 21.316V24.7176C2.50339 24.7552 0.0968018 27.1787 0.0968018 30.154V37.3846C0.0968018 40.3832 2.54092 42.8226 5.54501 42.8226H6.207H9.32593H13.351V24.7159H9.32593H8.59442V21.316C8.59442 11.5458 16.5581 3.59695 26.3468 3.59695C36.1355 3.59695 44.0992 11.5457 44.0992 21.316V24.7159H43.3677H39.3426V42.8226H43.3677H46.4866H47.1486C50.1528 42.8226 52.5968 40.3832 52.5968 37.3846V30.154C52.5968 27.1787 50.1901 24.7552 47.218 24.7176ZM9.3259 27.829H10.232V39.7094H9.3259V27.829ZM5.54492 39.7094H6.20691V27.829H5.54492C4.26061 27.829 3.21564 28.8719 3.21564 30.1539V37.3845C3.21564 38.6665 4.26051 39.7094 5.54492 39.7094ZM43.3676 39.7094H42.4614V27.829H43.3676V39.7094ZM47.1486 39.7095C48.4329 39.7095 49.4779 38.6666 49.4779 37.3846V30.1539C49.4779 28.8719 48.433 27.829 47.1486 27.829H46.4866V39.7095H47.1486Z" fill="#FDA8A8"/>
</svg>
