<svg width="215" height="52" viewBox="0 0 215 52" fill="none" xmlns="http://www.w3.org/2000/svg">
<path d="M44.5612 0H18.3829C15.4689 0 13.111 2.3374 13.111 5.226V19.8822L0.778478 31.9514C0.408962 32.3137 0.156348 32.7766 0.0526948 33.2814C-0.050958 33.7863 -0.000976476 34.3103 0.196296 34.7869C0.393569 35.2635 0.729239 35.6713 1.16071 35.9585C1.59217 36.2457 2.09999 36.3994 2.6197 36.4V49.4C2.6197 50.0896 2.89603 50.7509 3.38791 51.2385C3.87978 51.7261 4.5469 52 5.24252 52H47.2077C47.9033 52 48.5704 51.7261 49.0623 51.2385C49.5542 50.7509 49.8305 50.0896 49.8305 49.4V5.2234C49.8305 2.3374 47.4752 0 44.5612 0ZM23.3977 46.8H7.86534V32.3232L15.6997 24.6558L23.3977 32.4636V46.8ZM28.8479 18.2H23.6023V13H28.8479V18.2ZM39.3392 39H34.0936V33.8H39.3392V39ZM39.3392 28.6H34.0936V23.4H39.3392V28.6ZM39.3392 18.2H34.0936V13H39.3392V18.2Z" fill="#151717"/>
<path d="M13.1111 33.8H18.3568V39H13.1111V33.8Z" fill="#151717"/>
<path d="M69.968 35.3195L63.7943 27.2804V35.3195H59.3209V17.1149H63.7943V25.1021L69.9157 17.1149H75.1739L68.0583 26.0357L75.4355 35.3195H69.968Z" fill="#151717"/>
<path d="M86.2466 35.501C84.52 35.501 82.933 35.1034 81.4854 34.3081C80.0553 33.5128 78.913 32.4064 78.0585 30.9888C77.2213 29.5538 76.8028 27.946 76.8028 26.1653C76.8028 24.3846 77.2213 22.7855 78.0585 21.3678C78.913 19.9502 80.0553 18.8437 81.4854 18.0485C82.933 17.2532 84.52 16.8556 86.2466 16.8556C87.9731 16.8556 89.5515 17.2532 90.9815 18.0485C92.4291 18.8437 93.5627 19.9502 94.3824 21.3678C95.2195 22.7855 95.638 24.3846 95.638 26.1653C95.638 27.946 95.2195 29.5538 94.3824 30.9888C93.5452 32.4064 92.4116 33.5128 90.9815 34.3081C89.5515 35.1034 87.9731 35.501 86.2466 35.501ZM86.2466 31.4555C87.7115 31.4555 88.88 30.9715 89.752 30.0033C90.6415 29.0352 91.0862 27.7558 91.0862 26.1653C91.0862 24.5575 90.6415 23.2782 89.752 22.3273C88.88 21.3592 87.7115 20.8751 86.2466 20.8751C84.7642 20.8751 83.5782 21.3505 82.6888 22.3014C81.8168 23.2522 81.3808 24.5402 81.3808 26.1653C81.3808 27.7731 81.8168 29.0611 82.6888 30.0293C83.5782 30.9801 84.7642 31.4555 86.2466 31.4555Z" fill="#151717"/>
<path d="M102.6 31.8964H108.46V35.3195H98.1267V17.1149H102.6V31.8964Z" fill="#151717"/>
<path d="M115.067 31.8964H120.927V35.3195H110.594V17.1149H115.067V31.8964Z" fill="#151717"/>
<path d="M127.534 20.6676V24.35H133.525V27.7731H127.534V31.7667H134.309V35.3195H123.061V17.1149H134.309V20.6676H127.534Z" fill="#151717"/>
<path d="M147.861 35.3195L141.687 27.2804V35.3195H137.214V17.1149H141.687V25.1021L147.808 17.1149H153.067L145.951 26.0357L153.328 35.3195H147.861Z" fill="#151717"/>
<path d="M168.665 17.1149V20.6676H163.799V35.3195H159.326V20.6676H154.46V17.1149H168.665Z" fill="#151717"/>
<path d="M175.383 17.1149V35.3195H170.91V17.1149H175.383Z" fill="#151717"/>
<path d="M195.865 17.1149L189.351 35.3195H183.753L177.239 17.1149H182L186.552 30.8591L191.13 17.1149H195.865Z" fill="#151717"/>
<path d="M209.166 32.1039H202.312L201.214 35.3195H196.531L203.176 17.1149H208.355L215 35.3195H210.265L209.166 32.1039ZM208.015 28.6808L205.739 22.0161L203.49 28.6808H208.015Z" fill="#151717"/>
</svg>
